<svg xmlns="http://www.w3.org/2000/svg" width="1000" height="1000" viewBox="0 0 1000 1000"><g fill="none" fill-rule="evenodd"><ellipse cx="441.636" cy="282.684" fill="#DF2B7B" fill-rule="nonzero" opacity=".5" rx="100" ry="275" transform="rotate(-15 441.636 282.684)"/><ellipse cx="387.25" cy="305.211" fill="#DF2BD5" fill-rule="nonzero" opacity=".5" rx="100" ry="275" transform="rotate(-30 387.25 305.211)"/><ellipse cx="340.401" cy="341.401" fill="#B42BDF" fill-rule="nonzero" opacity=".5" rx="100" ry="275" transform="rotate(-45 340.401 341.401)"/><ellipse cx="304.644" cy="388" fill="#872BDF" fill-rule="nonzero" opacity=".5" rx="100" ry="275" transform="rotate(-60 304.644 388)"/><ellipse cx="282.184" cy="442.136" fill="#332BDF" fill-rule="nonzero" opacity=".5" rx="100" ry="275" transform="rotate(-75 282.184 442.136)"/><ellipse cx="274.5" cy="500.5" fill="#2B4BDF" fill-rule="nonzero" opacity=".5" rx="100" ry="275" transform="rotate(-90 274.5 500.5)"/><ellipse cx="281.684" cy="558.364" fill="#2B70DF" fill-rule="nonzero" opacity=".5" rx="100" ry="275" transform="rotate(-105 281.684 558.364)"/><ellipse cx="304.211" cy="612.75" fill="#4685BD" fill-rule="nonzero" opacity=".5" rx="100" ry="275" transform="rotate(-120 304.211 612.75)"/><ellipse cx="340.401" cy="659.599" fill="#46A5BD" fill-rule="nonzero" opacity=".5" rx="100" ry="275" transform="rotate(-135 340.401 659.599)"/><ellipse cx="387" cy="695.356" fill="#46BDB1" fill-rule="nonzero" opacity=".5" rx="100" ry="275" transform="rotate(-150 387 695.356)"/><ellipse cx="441.136" cy="717.816" fill="#46BD84" fill-rule="nonzero" opacity=".5" rx="100" ry="275" transform="rotate(-165 441.136 717.816)"/><ellipse cx="499.5" cy="725.5" fill="#4DBD46" fill-rule="nonzero" opacity=".5" rx="100" ry="275" transform="rotate(-180 499.5 725.5)"/><ellipse cx="557.864" cy="717.816" fill="#56BD46" fill-rule="nonzero" opacity=".5" rx="100" ry="275" transform="rotate(165 557.864 717.816)"/><ellipse cx="612.25" cy="695.289" fill="#7EBD46" fill-rule="nonzero" opacity=".5" rx="100" ry="275" transform="rotate(150 612.25 695.289)"/><ellipse cx="659.099" cy="659.099" fill="#89D42D" fill-rule="nonzero" opacity=".5" rx="100" ry="275" transform="rotate(135 659.099 659.099)"/><ellipse cx="694.856" cy="612.5" fill="#DFD41B" fill-rule="nonzero" opacity=".5" rx="100" ry="275" transform="rotate(120 694.856 612.5)"/><ellipse cx="717.316" cy="558.364" fill="#FCCA0C" fill-rule="nonzero" opacity=".5" rx="100" ry="275" transform="rotate(105 717.316 558.364)"/><ellipse cx="725" cy="500" fill="#FCC90C" fill-rule="nonzero" opacity=".5" rx="100" ry="275" transform="rotate(90 725 500)"/><ellipse cx="717.816" cy="442.136" fill="#FCAC0C" fill-rule="nonzero" opacity=".5" rx="100" ry="275" transform="rotate(75 717.816 442.136)"/><ellipse cx="695.289" cy="387.75" fill="#FC950C" fill-rule="nonzero" opacity=".5" rx="100" ry="275" transform="rotate(60 695.289 387.75)"/><ellipse cx="659.099" cy="340.901" fill="#FC870C" fill-rule="nonzero" opacity=".5" rx="100" ry="275" transform="rotate(45 659.099 340.901)"/><ellipse cx="612.5" cy="305.144" fill="#FC6F0C" fill-rule="nonzero" opacity=".5" rx="100" ry="275" transform="rotate(30 612.5 305.144)"/><ellipse cx="558.364" cy="282.684" fill="#FC400C" fill-rule="nonzero" opacity=".5" rx="100" ry="275" transform="rotate(15 558.364 282.684)"/><ellipse cx="500" cy="275" fill="#FC0C1A" fill-rule="nonzero" opacity=".5" rx="100" ry="275"/><path fill="#FFF" d="M229.723 433.113c46.721-9.313 66.4-7.569 71.452 17.873.903 4.54 1.35 11.538.894 16.357l2.718-.544c6.832-24.98 26.989-51.664 44.678-55.19 23.135-4.614 64.745 17.32 72.237 55.026 12.815 64.513-29.638 166.495-85.881 177.704-14.967 2.978-48.067-4.595-61.11-22.775-13.38 46.59-22.127 92.728-16.805 119.53-46.717 9.314-69.934 6.39-74.717-17.694-11.1-55.876 59.531-224.87 46.534-290.287m424.98-13.478c12.814 64.513-29.639 166.486-85.882 177.7-14.967 2.982-48.066-4.59-61.11-22.77-13.38 46.585-22.13 92.732-16.804 119.53-46.717 9.314-69.934 6.386-74.718-17.694-11.104-55.876 59.532-224.87 46.535-290.288 46.716-9.313 66.399-7.569 71.452 17.873.903 4.54 1.35 11.538.894 16.352l2.718-.543c6.827-24.976 26.988-51.66 44.678-55.186 23.135-4.614 64.744 17.32 72.236 55.026zM340.132 465c1.482 2.555 3.145 6.016 3.975 10.114 6.177 30.505-20.583 107.696-53.586 127.886-3.779-21.042 12.993-116.638 49.612-138zm444.684-188.387c11.044 55.918-59.228 225.018-46.297 290.48-46.478 9.32-69.577 6.39-74.337-17.707-11.048-55.913 59.229-225.014 46.298-290.48 46.478-9.32 69.577-6.385 74.336 17.707zm-212.38 141.944c-35.844 21.313-52.262 116.68-48.563 137.673 32.306-20.138 58.5-97.149 52.453-127.583-.811-4.088-2.44-7.546-3.89-10.09zm281.7 73.029c4.833 24.304-11.115 47.6-35.878 52.532-24.297 4.833-47.504-10.67-52.342-34.975-4.928-24.757 10.481-48.41 34.788-53.247 24.759-4.924 48.504 10.937 53.432 35.69z"/></g></svg>